<svg height="511pt" viewBox="0 1 511 511.999" width="511pt" xmlns="http://www.w3.org/2000/svg"><path d="m277.914062 504.5h-43.4375c-5.699218 0-10.320312-4.621094-10.320312-10.316406v-266.320313h64.078125v266.320313c0 5.695312-4.621094 10.316406-10.320313 10.316406zm0 0" fill="#cdd6df"/><path d="m355.84375 344.503906h-199.296875c-12.644531 0-22.890625-10.246094-22.890625-22.890625v-47.132812h245.082031v47.132812c0 12.644531-10.25 22.890625-22.894531 22.890625zm0 0" fill="#fed066"/><path d="m325 274.480469v70.023437h30.84375c12.644531 0 22.894531-10.25 22.894531-22.890625v-47.132812zm0 0" fill="#f5b556"/><path d="m481.65625 314.148438h-450.921875c-12.558594 0-22.734375-10.179688-22.734375-22.734376v-261.179687c0-12.554687 10.175781-22.734375 22.734375-22.734375h450.921875c12.554688 0 22.734375 10.179688 22.734375 22.734375v261.175781c0 12.558594-10.179687 22.738282-22.734375 22.738282zm0 0" fill="#fd715c"/><path d="m40.007812 39.511719h432.371094v242.625h-432.371094zm0 0" fill="#f2f2f2"/><path d="m418.640625 39.511719h53.738281v242.625h-53.738281zm0 0" fill="#cdd6df"/><g fill="#fed066"><path d="m111.992188 67.539062h-11.046876c-8.820312 0-15.972656-7.148437-15.972656-15.96875v-44.070312h42.992188v44.070312c0 8.820313-7.152344 15.96875-15.972656 15.96875zm0 0"/><path d="m261.71875 67.539062h-11.046875c-8.820313 0-15.972656-7.148437-15.972656-15.96875v-44.070312h42.992187v44.070312c0 8.820313-7.152344 15.96875-15.972656 15.96875zm0 0"/><path d="m411.445312 67.539062h-11.046874c-8.820313 0-15.972657-7.148437-15.972657-15.96875v-44.070312h42.992188v44.070312c0 8.820313-7.152344 15.96875-15.972657 15.96875zm0 0"/></g><path d="m136.421875 214.074219c0-.40625 0-.808594.136719-1.214844l26.855468-87.449219c1.078126-3.238281 4.992188-4.855468 9.039063-4.855468 4.050781 0 8.097656 1.617187 9.179687 4.855468l26.71875 87.449219c.136719.40625.269532.808594.269532 1.214844 0 3.375-4.992188 5.9375-9.042969 5.9375-2.292969 0-4.183594-.808594-4.855469-2.96875l-5.535156-19.164063h-33.332031l-5.53125 19.164063c-.675781 2.160156-2.566407 2.96875-4.996094 2.96875-3.910156 0-8.90625-2.429688-8.90625-5.9375zm49.527344-27.664063-13.492188-46.289062-13.496093 46.289062zm0 0"/><path d="m256.53125 121.363281c17.136719 0 30.363281 8.234375 30.363281 30.09375v38.460938c0 21.863281-13.226562 30.09375-30.363281 30.09375h-23.886719c-3.777343 0-6.339843-2.160157-6.339843-4.585938v-89.472656c0-2.429687 2.5625-4.589844 6.339843-4.589844zm-15.921875 12.6875v73.273438h15.921875c10.121094 0 16.058594-5.53125 16.058594-17.40625v-38.460938c0-11.875-5.9375-17.410156-16.058594-17.410156h-15.921875zm0 0"/><path d="m351.945312 193.832031c0-23.886719-43.859374-14.574219-43.859374-46.960937 0-19.972656 16.734374-25.910156 31.171874-25.910156 8.773438 0 24.5625 2.292968 24.5625 9.714843 0 2.699219-1.890624 7.691407-5.9375 7.691407-3.644531 0-7.152343-5.128907-18.625-5.128907-9.851562 0-16.867187 3.78125-16.867187 12.28125 0 19.972657 43.859375 10.929688 43.859375 46.828125 0 19.296875-12.957031 28.742188-30.769531 28.742188-17.546875 0-29.824219-9.175782-29.824219-15.921875 0-3.238281 2.832031-7.691407 6.207031-7.691407 4.859375 0 8.097657 10.660157 23.078125 10.660157 9.714844 0 17.003906-4.589844 17.003906-14.304688zm0 0"/><path d="m481.65625 0h-450.921875c-16.671875 0-30.234375 13.5625-30.234375 30.234375v261.175781c0 16.671875 13.5625 30.234375 30.234375 30.234375h95.421875c.015625 16.742188 13.644531 30.359375 30.390625 30.359375h60.109375v142.175782c0 9.828124 7.992188 17.820312 17.816406 17.820312h43.441406c9.824219 0 17.816407-7.992188 17.816407-17.820312v-142.175782h60.113281c16.746094 0 30.371094-13.613281 30.390625-30.355468h95.421875c16.667969 0 30.230469-13.5625 30.230469-30.234376v-261.179687c.003906-16.671875-13.558594-30.234375-30.230469-30.234375zm-61.738281 51.570312c0 4.667969-3.800781 8.46875-8.472657 8.46875h-11.046874c-4.671876 0-8.472657-3.800781-8.472657-8.46875v-36.570312h27.992188zm-327.445313-36.570312h27.992188v36.570312c0 4.667969-3.800782 8.46875-8.472656 8.46875h-11.046876c-4.671874 0-8.472656-3.800781-8.472656-8.46875zm42.992188 0h91.734375v17.011719h-91.734375zm106.734375 0h27.992187v36.570312c0 4.667969-3.800781 8.46875-8.472656 8.46875h-11.046875c-4.671875 0-8.472656-3.800781-8.472656-8.46875zm42.992187 0h91.734375v17.011719h-91.734375zm-4.457031 479.183594c0 1.550781-1.265625 2.816406-2.820313 2.816406h-43.4375c-1.554687 0-2.820312-1.265625-2.820312-2.816406v-142.179688h49.078125zm75.109375-157.179688h-199.296875c-8.476563 0-15.375-6.886718-15.390625-15.355468h230.082031c-.019531 8.46875-6.917969 15.355468-15.394531 15.355468zm141.046875-45.589844c0 8.398438-6.832031 15.234376-15.234375 15.234376h-450.921875c-8.402344 0-15.234375-6.835938-15.234375-15.234376v-261.179687c0-8.398437 6.832031-15.234375 15.234375-15.234375h46.738281v17.011719h-37.464844c-4.140624 0-7.5 3.355469-7.5 7.5v106.308593c0 4.140626 3.359376 7.5 7.5 7.5 4.144532 0 7.5-3.359374 7.5-7.5v-98.808593h29.964844v4.558593c0 12.941407 10.53125 23.46875 23.472656 23.46875h11.046876c12.941406 0 23.472656-10.527343 23.472656-23.46875v-4.558593h91.734375v4.558593c0 12.941407 10.527343 23.46875 23.472656 23.46875h11.046875c12.941406 0 23.472656-10.527343 23.472656-23.46875v-4.558593h91.734375v4.558593c0 12.941407 10.527344 23.46875 23.472657 23.46875h11.046874c12.941407 0 23.472657-10.527343 23.472657-23.46875v-4.558593h29.960937v98.808593c0 4.140626 3.359375 7.5 7.5 7.5 4.144532 0 7.5-3.359374 7.5-7.5v-106.308593c0-4.144531-3.355468-7.5-7.5-7.5h-37.460937v-17.011719h46.738281c8.398438 0 15.234375 6.835938 15.234375 15.234375zm0 0"/><path d="m472.378906 168.328125c-4.140625 0-7.5 3.359375-7.5 7.5v98.808594h-417.371094v-98.808594c0-4.140625-3.355468-7.5-7.5-7.5-4.140624 0-7.5 3.359375-7.5 7.5v106.308594c0 4.140625 3.359376 7.5 7.5 7.5h432.371094c4.144532 0 7.5-3.359375 7.5-7.5v-106.308594c0-4.140625-3.355468-7.5-7.5-7.5zm0 0"/></svg>