<svg height="512pt" viewBox="0 -5 512 512" width="512pt" xmlns="http://www.w3.org/2000/svg"><path d="m466.929688 327.46875-102.476563 68.582031-30.539063-1.714843-1.195312-12.023438c-1.78125-17.890625-15.558594-32.253906-33.363281-34.773438l-81.828125-9.421874c-18.875-2.667969-37.050782-8.996094-53.503906-18.621094-22.46875-13.140625-48.027344-20.070313-74.054688-20.070313h-58.996094v134.667969l155.925782 59.046875c5.890624 1.664063 12.082031 2.164063 18.128906 1.207031.035156-.003906.070312-.011718.109375-.015625l156.980469-22.628906c12.09375-1.929687 23.460937-7.023437 32.949218-14.765625l101.460938-91.25c9.105468-8.085938 10.792968-21.671875 3.941406-31.742188-7.496094-11.015624-22.480469-13.910156-33.539062-6.476562zm0 0" fill="#ffe8c2"/><path d="m498.238281 331.136719-103.171875 72.847656c-9.488281 7.738281-20.855468 12.832031-32.949218 14.761719l-156.980469 22.628906c-.035157.007812-.074219.011719-.109375.019531-6.046875.953125-12.238282.457031-18.128906-1.207031l-155.925782-59.046875v52.953125l155.925782 59.046875c5.890624 1.664063 12.082031 2.164063 18.128906 1.207031.035156-.003906.070312-.011718.109375-.015625l156.980469-22.628906c12.09375-1.929687 23.460937-7.023437 32.949218-14.765625l101.460938-91.25c9.105468-8.085938 10.792968-21.671875 3.941406-31.742188-.683594-1.003906-1.433594-1.941406-2.230469-2.808593zm0 0" fill="#efd5af"/><path d="m61.117188 473.695312h-45.507813c-4.558594 0-8.253906-3.695312-8.253906-8.253906v-183.648437c0-4.558594 3.695312-8.253907 8.253906-8.253907h45.507813c4.558593 0 8.253906 3.695313 8.253906 8.253907v183.652343c0 4.558594-3.695313 8.25-8.253906 8.25zm0 0" fill="#ff9248"/><path d="m7.355469 465.445312c0 4.558594 3.695312 8.25 8.253906 8.25h45.507813c4.558593 0 8.253906-3.691406 8.253906-8.25v-44.703124h-62.015625zm0 0" fill="#f97c28"/><path d="m396.878906 151.917969c0 79.839843-64.722656 144.5625-144.5625 144.5625s-144.5625-64.722657-144.5625-144.5625c0-79.839844 64.722656-144.5625 144.5625-144.5625s144.5625 64.722656 144.5625 144.5625zm0 0" fill="#88dbfd"/><path d="m252.316406 7.355469c-9.046875 0-17.894531.839843-26.476562 2.429687 67.191406 12.4375 118.082031 71.339844 118.082031 142.132813 0 70.796875-50.890625 129.695312-118.082031 142.132812 8.582031 1.589844 17.429687 2.429688 26.476562 2.429688 79.835938 0 144.5625-64.722657 144.5625-144.5625 0-79.839844-64.722656-144.5625-144.5625-144.5625zm0 0" fill="#5abfe9"/><path d="m252.316406 303.835938c83.765625 0 151.917969-68.148438 151.917969-151.917969s-68.152344-151.917969-151.917969-151.917969c-83.769531 0-151.917968 68.148438-151.917968 151.917969s68.148437 151.917969 151.917968 151.917969zm-126.640625-99.113282h58.773438c3.320312 19.40625 8.484375 37.242188 15.296875 52.425782 4.875 10.863281 10.417968 19.960937 16.472656 27.15625-40.96875-11.183594-74.359375-40.917969-90.542969-79.582032zm126.640625-190.011718c14.042969 0 28.308594 13.847656 39.140625 37.996093 6.035157 13.453125 10.6875 29.207031 13.796875 46.40625h-105.878906c3.109375-17.199219 7.761719-32.953125 13.796875-46.40625 10.832031-24.144531 25.097656-37.996093 39.144531-37.996093zm55.175782 99.113281c1.527343 12.230469 2.316406 25.019531 2.316406 38.09375s-.789063 25.863281-2.316406 38.09375h-110.355469c-1.527344-12.230469-2.3125-25.019531-2.3125-38.09375s.785156-25.863281 2.3125-38.09375zm82.027343 38.09375c0 13.214843-1.875 25.992187-5.378906 38.09375h-61.835937c1.460937-12.292969 2.214843-25.070313 2.214843-38.09375 0-13.023438-.753906-25.800781-2.214843-38.089844h61.835937c3.503906 12.097656 5.378906 24.878906 5.378906 38.089844zm-137.203125 137.207031c-14.046875 0-28.3125-13.851562-39.144531-37.996094-6.035156-13.453125-10.6875-29.207031-13.796875-46.40625h105.878906c-3.109375 17.199219-7.761718 32.953125-13.796875 46.40625-10.832031 24.144532-25.097656 37.996094-39.140625 37.996094zm-69.992187-99.113281h-61.835938c-3.503906-12.101563-5.378906-24.878907-5.378906-38.09375 0-13.210938 1.878906-25.992188 5.378906-38.089844h61.835938c-1.460938 12.289063-2.214844 25.070313-2.214844 38.089844 0 13.023437.753906 25.800781 2.214844 38.09375zm106.089843 94.292969c6.054688-7.195313 11.597657-16.292969 16.46875-27.15625 6.8125-15.183594 11.976563-33.019532 15.296876-52.425782h58.773437c-16.179687 38.664063-49.570313 68.398438-90.539063 79.582032zm90.539063-185.191407h-58.773437c-3.320313-19.40625-8.484376-37.238281-15.296876-52.425781-4.871093-10.863281-10.414062-19.960938-16.46875-27.15625 40.96875 11.183594 74.359376 40.921875 90.539063 79.582031zm-162.734375-79.582031c-6.054688 7.195312-11.597656 16.296875-16.46875 27.15625-6.8125 15.1875-11.980469 33.019531-15.300781 52.425781h-58.769531c16.179687-38.660156 49.566406-68.398437 90.539062-79.582031zm0 0"/><path d="m61.117188 266.183594h-45.507813c-8.605469 0-15.609375 7-15.609375 15.605468v183.652344c0 8.609375 7.003906 15.609375 15.609375 15.609375h45.507813c8.609374 0 15.609374-7 15.609374-15.609375v-183.652344c0-8.605468-7-15.605468-15.609374-15.605468zm.898437 199.261718c0 .492188-.402344.894532-.898437.894532h-45.507813c-.496094 0-.898437-.402344-.898437-.894532v-183.65625c0-.492187.402343-.894531.898437-.894531h45.507813c.496093 0 .898437.402344.898437.894531zm0 0"/><path d="m506.550781 329.808594c-9.738281-14.316406-29.355469-18.101563-43.710937-8.457032l-100.429688 67.214844-21.800781-1.222656-.570313-5.757812c-2.121093-21.332032-18.425781-38.328126-39.652343-41.328126-.0625-.011718-.125-.019531-.1875-.027343l-81.734375-9.410157c-17.980469-2.554687-35.046875-8.503906-50.726563-17.675781-20.738281-12.128906-44.378906-19.320312-68.359375-20.789062-4.039062-.214844-7.542968 2.839843-7.792968 6.894531s2.839843 7.542969 6.894531 7.792969c21.691406 1.328125 43.070312 7.828125 61.828125 18.800781 17.367187 10.160156 36.269531 16.738281 56.1875 19.558594.066406.007812.128906.015625.191406.023437l81.726562 9.410157c14.449219 2.085937 25.539063 13.671874 26.984376 28.207031l.511718 5.136719-115.875 18.753906-50.296875-12.34375c-3.949219-.972656-7.929687 1.441406-8.894531 5.390625-.96875 3.945312 1.441406 7.929687 5.390625 8.898437l51.75 12.699219c.574219.140625 1.164063.210937 1.75.210937.394531 0 .789063-.03125 1.175781-.09375l123.390625-19.96875 29.742188 1.667969c1.597656.09375 3.175781-.34375 4.503906-1.230469l102.488281-68.589843c7.675782-5.160157 18.152344-3.132813 23.355469 4.507812 4.753906 6.988281 3.574219 16.492188-2.78125 22.136719l-101.324219 91.125c-8.433594 6.84375-18.550781 11.363281-29.277344 13.085938l-156.917968 22.621093c-.035156.003907-.066406.007813-.101563.011719l-.109375.015625c-4.742187.75-9.683594.4375-14.6875-.9375l-82.558594-31.261719c-3.800781-1.441406-8.046874.472656-9.488281 4.273438-1.4375 3.800781.476563 8.046875 4.277344 9.484375l82.871094 31.382812c.199219.078125.402343.144531.609375.199219 4.648437 1.3125 9.296875 1.972656 13.886718 1.972656 2.480469 0 4.949219-.195312 7.386719-.578125.003907-.003906.035157-.007812.058594-.011719l156.933594-22.621093c.035156-.003907.074219-.011719.109375-.015625 13.359375-2.132813 25.960937-7.78125 36.441406-16.328125.09375-.074219.183594-.152344.269531-.230469l101.425781-91.21875c11.828126-10.507812 14.039063-28.296875 5.136719-41.378906zm0 0"/></svg>